HIERARCHY
ROOT joint_Root
{
	OFFSET 0.0 0.0 0.0
	CHANNELS 6 Xposition Yposition Zposition Zrotation Xrotation Yrotation 
	JOINT Hips
	{
		OFFSET -0.726466 93.3139 -2.00062
		CHANNELS 6 Xposition Yposition Zposition Zrotation Xrotation Yrotation 
		JOINT Spine
		{
			OFFSET 15.7357 0.0 0.0
			CHANNELS 6 Xposition Yposition Zposition Zrotation Xrotation Yrotation 
			JOINT Chest
			{
				OFFSET 8.98455 -0.406207 0.0
				CHANNELS 6 Xposition Yposition Zposition Zrotation Xrotation Yrotation 
				JOINT Neck
				{
					OFFSET 16.3773 0.0 0.0
					CHANNELS 6 Xposition Yposition Zposition Zrotation Xrotation Yrotation 
					JOINT Head
					{
						OFFSET 6.45672 0.0 0.0
						CHANNELS 6 Xposition Yposition Zposition Zrotation Xrotation Yrotation 
						End Site
						{
							OFFSET 0.0 0.0 0.0
						}
					}
				}
				JOINT Shoulder_L
				{
					OFFSET 12.9942 -0.242716 4.98039
					CHANNELS 6 Xposition Yposition Zposition Zrotation Xrotation Yrotation 
					JOINT UpperArm_L
					{
						OFFSET 5.34809 0.0 0.0
						CHANNELS 6 Xposition Yposition Zposition Zrotation Xrotation Yrotation 
						JOINT LowerArm_L
						{
							OFFSET 24.3286 1.87007e-05 0.0
							CHANNELS 6 Xposition Yposition Zposition Zrotation Xrotation Yrotation 
							JOINT Hand_L
							{
								OFFSET 22.2916 0.0 0.0
								CHANNELS 6 Xposition Yposition Zposition Zrotation Xrotation Yrotation 
								End Site
								{
									OFFSET 0.0 0.0 0.0
								}
							}
						}
					}
				}
				JOINT Shoulder_R
				{
					OFFSET 12.9945 -0.242716 -4.98039
					CHANNELS 6 Xposition Yposition Zposition Zrotation Xrotation Yrotation 
					JOINT UpperArm_R
					{
						OFFSET -5.34813 0.0 0.0
						CHANNELS 6 Xposition Yposition Zposition Zrotation Xrotation Yrotation 
						JOINT LowerArm_R
						{
							OFFSET -24.3289 0.000322201 0.0
							CHANNELS 6 Xposition Yposition Zposition Zrotation Xrotation Yrotation 
							JOINT Hand_R
							{
								OFFSET -22.2915 -0.000108084 0.0
								CHANNELS 6 Xposition Yposition Zposition Zrotation Xrotation Yrotation 
								End Site
								{
									OFFSET 0.0 0.0 0.0
								}
							}
						}
					}
				}
			}
		}
		JOINT UpperLeg_L
		{
			OFFSET -2.19248 -6.46944 0.0
			CHANNELS 6 Xposition Yposition Zposition Zrotation Xrotation Yrotation 
			JOINT LowerLeg_L
			{
				OFFSET 39.0811 0.0 -1.23785e-05
				CHANNELS 6 Xposition Yposition Zposition Zrotation Xrotation Yrotation 
				JOINT Foot_L
				{
					OFFSET 40.9854 0.0 -1.26872e-05
					CHANNELS 6 Xposition Yposition Zposition Zrotation Xrotation Yrotation 
					JOINT Toes_L
					{
						OFFSET 11.7543 0.0 0.0
						CHANNELS 6 Xposition Yposition Zposition Zrotation Xrotation Yrotation 
						End Site
						{
							OFFSET 0.0 0.0 0.0
						}
					}
				}
			}
		}
		JOINT UpperLeg_R
		{
			OFFSET -2.19251 6.46944 0.0
			CHANNELS 6 Xposition Yposition Zposition Zrotation Xrotation Yrotation 
			JOINT LowerLeg_R
			{
				OFFSET -39.0811 -0.00228153 -0.0401928
				CHANNELS 6 Xposition Yposition Zposition Zrotation Xrotation Yrotation 
				JOINT Foot_R
				{
					OFFSET -40.9854 0.0 0.0
					CHANNELS 6 Xposition Yposition Zposition Zrotation Xrotation Yrotation 
					JOINT Toes_R
					{
						OFFSET -11.7543 0.0 0.0
						CHANNELS 6 Xposition Yposition Zposition Zrotation Xrotation Yrotation 
						End Site
						{
							OFFSET 0.0 0.0 0.0
						}
					}
				}
			}
		}
	}
}
MOTION
Frames:	4
Frame Time:	0.0333333
0.000000 0.000000 0.000000 0.000000 0.000000 -0.000000 136.277000 91.842300 -165.977000 84.796700 -0.059085 2.532670 15.735700 0.000005 -0.000001 78.136400 81.776400 -77.552200 8.984550 -0.406207 -0.000000 8.358120 -3.362690 1.413230 16.377300 -0.000001 -0.000001 7.736480 -0.607136 -0.825889 6.456720 -0.000001 -0.000000 1.351050 3.656420 6.489630 12.994200 -0.242716 4.980390 -88.300300 -4.734700 -70.226200 5.348090 -0.000007 -0.000001 -48.473700 28.690200 -29.389200 24.328600 0.000019 0.000005 5.864990 5.517820 -46.889000 22.291600 -0.000001 0.000005 4.919670 5.562780 -9.323770 12.994500 -0.242716 -4.980390 88.832900 2.435690 -64.387000 -5.348130 -0.000001 -0.000004 -62.762800 30.965100 -4.020300 -24.328900 0.000322 -0.000009 4.491080 6.762100 -33.712300 -22.291500 -0.000108 -0.000004 2.676940 5.510600 -6.966660 -2.192480 -6.469440 -0.000000 -175.944000 -15.157100 -6.070270 39.081100 -0.000007 -0.000012 0.004690 -0.008795 28.067300 40.985400 -0.000006 -0.000013 5.691970 0.819675 -70.610800 11.754300 -0.000000 0.000003 0.000507 0.009024 -16.211000 -2.192510 6.469440 -0.000001 178.579000 22.097100 161.837000 -39.081100 -0.002282 -0.040193 0.158093 -0.131471 49.667100 -40.985400 0.000008 0.000006 -0.822875 2.068420 -56.391700 -11.754300 -0.000006 -0.000006 -0.020661 -0.170925 -23.557700
0.000000 0.000000 0.000000 0.000000 0.000000 -0.000000 136.298000 91.986800 -163.714000 84.685100 0.824213 2.322130 15.735700 0.000005 -0.000001 75.152900 81.656700 -74.345300 8.984550 -0.406207 -0.000000 8.411340 -4.251390 1.927080 16.377300 -0.000001 -0.000001 7.884670 -0.811659 -0.597541 6.456720 -0.000001 -0.000000 1.278340 4.040690 6.395220 12.994200 -0.242716 4.980390 -88.194100 -5.118020 -70.534500 5.348090 -0.000007 -0.000001 -46.061600 27.664500 -31.989900 24.328600 0.000019 0.000005 6.475140 5.403160 -50.320800 22.291600 -0.000001 0.000005 5.117440 5.565620 -9.465620 12.994500 -0.242716 -4.980390 88.862900 2.275820 -63.442800 -5.348130 -0.000001 -0.000004 -63.568400 29.643300 -1.574910 -24.328900 0.000322 -0.000009 4.726910 7.048280 -33.981000 -22.291500 -0.000108 -0.000004 2.924140 5.502800 -6.647140 -2.192480 -6.469440 -0.000000 -175.409000 -14.845900 -3.659640 39.081100 -0.000007 -0.000012 -0.000696 0.001429 25.976800 40.985400 -0.000006 -0.000013 5.199570 1.453510 -70.965600 11.754300 -0.000000 0.000003 0.000659 0.011950 -16.092300 -2.192510 6.469440 -0.000001 -179.465000 23.075500 159.934000 -39.081100 -0.002282 -0.040193 0.096348 -0.105812 41.334900 -40.985400 0.000008 0.000006 -2.152870 4.842160 -56.217400 -11.754300 -0.000006 -0.000006 -0.021009 -0.172814 -23.635600
0.000000 0.000000 0.000000 0.000000 0.000000 -0.000000 136.313000 91.885700 -161.456000 85.078700 1.424050 1.791300 15.735700 0.000005 -0.000001 72.694400 81.634500 -71.845400 8.984550 -0.406207 -0.000000 8.268060 -4.950800 2.055290 16.377300 -0.000001 -0.000001 7.955850 -1.025140 -0.402822 6.456720 -0.000001 -0.000000 1.274160 4.220960 6.306820 12.994200 -0.242716 4.980390 -88.111300 -5.415900 -70.741100 5.348090 -0.000007 -0.000001 -44.015100 26.361100 -33.981700 24.328600 0.000019 0.000005 6.054090 4.534720 -53.299100 22.291600 -0.000001 0.000005 5.593460 5.574230 -9.907390 12.994500 -0.242716 -4.980390 88.907500 2.118310 -62.710600 -5.348130 -0.000001 -0.000004 -64.284500 28.469200 0.662098 -24.328900 0.000322 -0.000009 4.636970 6.852540 -34.213400 -22.291500 -0.000108 -0.000004 3.110200 5.501420 -6.591030 -2.192480 -6.469440 -0.000000 -175.557000 -14.176900 -1.813930 39.081100 -0.000007 -0.000012 -0.006513 0.014373 24.377900 40.985400 -0.000006 -0.000013 4.769650 1.406950 -71.559200 11.754300 -0.000000 0.000003 0.000738 0.013516 -16.028700 -2.192510 6.469440 -0.000001 -177.877000 22.871600 158.184000 -39.081100 -0.002282 -0.040193 0.047025 -0.069708 32.099800 -40.985400 0.000008 0.000006 -3.147690 5.396350 -55.799000 -11.754300 -0.000006 -0.000006 -0.021055 -0.173062 -23.645800
0.000000 0.000000 0.000000 0.000000 0.000000 -0.000000 136.284000 91.549000 -158.999000 85.757800 2.059970 1.456320 15.735700 0.000005 -0.000001 70.635500 81.552400 -69.843300 8.984550 -0.406207 -0.000000 8.241760 -5.573690 1.985860 16.377300 -0.000001 -0.000001 8.065850 -1.226870 -0.275589 6.456720 -0.000001 -0.000000 1.196200 4.245500 6.320580 12.994200 -0.242716 4.980390 -88.048700 -5.607870 -70.779100 5.348090 -0.000007 -0.000001 -42.234900 25.132600 -35.753800 24.328600 0.000019 0.000005 5.422650 3.701250 -55.783800 22.291600 -0.000001 0.000005 6.202540 5.575720 -9.984550 12.994500 -0.242716 -4.980390 88.972600 1.947370 -62.176500 -5.348130 -0.000001 -0.000004 -65.042600 27.328600 2.700920 -24.328900 0.000322 -0.000009 4.498350 6.633720 -34.262200 -22.291500 -0.000108 -0.000004 3.085580 5.497850 -6.446400 -2.192480 -6.469440 -0.000000 -176.034000 -12.855200 0.141690 39.081100 -0.000007 -0.000012 -0.012240 0.028495 23.244800 40.985400 -0.000006 -0.000013 4.312090 0.696345 -72.443800 11.754300 -0.000000 0.000003 -0.501743 -0.615991 -16.400300 -2.192510 6.469440 -0.000001 -176.697000 22.333700 157.085000 -39.081100 -0.002282 -0.040193 0.019082 -0.037424 22.843700 -40.985400 0.000008 0.000006 -2.818400 3.203170 -55.992600 -11.754300 -0.000006 -0.000006 -0.020915 -0.172307 -23.614600
